<svg width="127" height="127" viewBox="0 0 127 127" fill="none" xmlns="http://www.w3.org/2000/svg">
<path fill-rule="evenodd" clip-rule="evenodd" d="M35.2967 6.64917C23.0806 6.64917 16.9628 21.4189 25.6009 30.057V30.057C28.1724 32.6285 31.6601 34.0731 35.2967 34.0731H49.5819C54.3551 34.0731 58.9329 35.969 62.3084 39.3438L73.9228 50.9556C80.9536 57.9848 80.9542 69.3829 73.9242 76.4129L62.3087 88.0284C58.933 91.4041 54.3546 93.3005 49.5807 93.3005H35.2952C31.6595 93.3005 28.1727 94.7446 25.6017 97.3152V97.3152C16.9639 105.952 23.0805 120.72 35.2952 120.72H60.938C65.7119 120.72 70.2903 118.824 73.6659 115.448L112.702 76.4117C119.732 69.3821 119.732 57.985 112.702 50.9556L73.6659 11.921C70.2902 8.54549 65.712 6.64917 60.9382 6.64917H35.2967Z" fill="white"/>
<path fill-rule="evenodd" clip-rule="evenodd" d="M5.65771 58.027C2.53311 61.1511 2.53292 66.2168 5.65728 69.3411L15.9601 79.644C20.9999 84.6837 29.617 81.1144 29.617 73.9872V53.3829C29.617 46.256 21.0005 42.6865 15.9606 47.7257L5.65771 58.027Z" fill="white"/>
</svg>
