<svg width="863" height="174" viewBox="0 0 863 174" fill="none" xmlns="http://www.w3.org/2000/svg">
<path fill-rule="evenodd" clip-rule="evenodd" d="M35.2967 38.6492C23.0806 38.6492 16.9628 53.4189 25.6009 62.057V62.057C28.1724 64.6285 31.6601 66.0731 35.2967 66.0731H49.5819C54.3551 66.0731 58.9329 67.969 62.3084 71.3438L73.9228 82.9556C80.9536 89.9848 80.9542 101.383 73.9242 108.413L62.3087 120.028C58.933 123.404 54.3546 125.301 49.5807 125.301H35.2952C31.6595 125.301 28.1727 126.745 25.6017 129.315V129.315C16.9639 137.952 23.0805 152.72 35.2952 152.72H60.938C65.7119 152.72 70.2903 150.824 73.6659 147.448L112.702 108.412C119.732 101.382 119.732 89.985 112.702 82.9556L73.6659 43.921C70.2902 40.5455 65.712 38.6492 60.9382 38.6492H35.2967Z" fill="white"/>
<path fill-rule="evenodd" clip-rule="evenodd" d="M5.65771 90.027C2.53311 93.1511 2.53292 98.2168 5.65728 101.341L15.9601 111.644C20.9999 116.684 29.617 113.114 29.617 105.987V85.3829C29.617 78.256 21.0005 74.6865 15.9606 79.7257L5.65771 90.027Z" fill="white"/>
<path d="M186.931 145.663C192.475 145.663 197.51 144.601 202.037 142.476C206.656 140.258 210.352 137.117 213.124 133.052V144H225.735V39.0919H212.708V79.2812C209.844 75.5857 206.194 72.7216 201.76 70.689C197.325 68.6565 192.382 67.6402 186.931 67.6402C179.91 67.6402 173.581 69.3494 167.945 72.7678C162.402 76.1862 158.013 80.8519 154.78 86.7648C151.546 92.5853 149.929 99.2373 149.929 106.721C149.929 114.112 151.546 120.764 154.78 126.677C158.013 132.498 162.402 137.117 167.945 140.535C173.581 143.954 179.91 145.663 186.931 145.663ZM188.04 133.19C183.328 133.19 179.124 132.036 175.429 129.726C171.733 127.416 168.823 124.275 166.698 120.302C164.573 116.237 163.51 111.71 163.51 106.721C163.51 101.639 164.573 97.1124 166.698 93.1396C168.823 89.0745 171.733 85.8871 175.429 83.5773C179.217 81.2676 183.42 80.1127 188.04 80.1127C192.752 80.1127 196.955 81.3138 200.651 83.7159C204.347 86.0257 207.257 89.1669 209.382 93.1396C211.599 97.1124 212.708 101.639 212.708 106.721C212.708 111.71 211.599 116.237 209.382 120.302C207.257 124.275 204.347 127.416 200.651 129.726C196.955 132.036 192.752 133.19 188.04 133.19ZM244.713 57.385H257.74V40.7549H244.713V57.385ZM244.713 144H257.74V69.3032H233.765V81.6372H244.713V144ZM270.666 144H283.555V81.6372H318.201V144H331.227V81.6372H365.874V144H378.9V69.3032H270.666V144ZM412.172 145.663C417.623 145.663 422.52 144.647 426.862 142.614C431.205 140.489 434.716 137.718 437.395 134.299V144H450.006V69.3032H394.434V81.6372H437.118V96.7428L411.618 100.9C403.211 102.286 397.021 105.104 393.048 109.354C389.168 113.512 387.227 118.547 387.227 124.46C387.227 130.742 389.537 135.87 394.157 139.842C398.868 143.723 404.874 145.663 412.172 145.663ZM400.809 124.044C400.809 120.81 401.871 118.085 403.996 115.867C406.213 113.65 409.724 112.126 414.528 111.294L437.118 107.552V112.264C437.118 116.422 436.148 120.21 434.207 123.628C432.267 127.047 429.542 129.772 426.031 131.805C422.52 133.745 418.409 134.715 413.697 134.715C410.001 134.715 406.906 133.699 404.412 131.666C402.01 129.633 400.809 127.093 400.809 124.044ZM489.807 145.663C495.165 145.663 499.877 144.739 503.942 142.891C508.007 141.044 511.195 138.503 513.505 135.269C515.814 131.943 516.969 128.155 516.969 123.905C516.969 118.732 515.26 114.297 511.842 110.601C508.423 106.906 503.711 104.18 497.706 102.425L485.511 98.8216C484.032 98.3596 482.508 97.8053 480.937 97.1586C479.367 96.4195 478.027 95.4032 476.918 94.1097C475.81 92.7239 475.255 90.9685 475.255 88.8435C475.255 85.8871 476.364 83.485 478.581 81.6372C480.891 79.7894 483.894 78.8655 487.589 78.8655C491.654 78.8655 495.35 80.0203 498.676 82.3301C502.094 84.5474 504.635 87.5963 506.298 91.4766L516.831 86.6262C514.613 80.6209 510.871 75.9552 505.605 72.6292C500.431 69.3032 494.565 67.6402 488.005 67.6402C483.108 67.6402 478.674 68.5641 474.701 70.4119C470.821 72.2596 467.726 74.8465 465.416 78.1726C463.199 81.4062 462.09 85.2403 462.09 89.675C462.09 94.4793 463.614 98.7292 466.663 102.425C469.804 106.028 474.747 108.753 481.492 110.601L492.717 113.789C494.288 114.158 495.904 114.759 497.567 115.59C499.323 116.329 500.801 117.392 502.002 118.778C503.296 120.071 503.942 121.827 503.942 124.044C503.942 127.185 502.603 129.726 499.923 131.666C497.244 133.606 493.872 134.576 489.807 134.576C485.28 134.576 481.168 133.329 477.473 130.835C473.777 128.248 470.867 124.691 468.742 120.164L458.487 125.153C460.796 131.435 464.723 136.424 470.266 140.12C475.81 143.815 482.323 145.663 489.807 145.663ZM526.911 144H539.8V81.6372H565.022V69.3032H526.911V144ZM591.547 145.663C596.998 145.663 601.894 144.647 606.237 142.614C610.579 140.489 614.09 137.718 616.769 134.299V144H629.38V69.3032H573.808V81.6372H616.492V96.7428L590.993 100.9C582.585 102.286 576.395 105.104 572.422 109.354C568.542 113.512 566.602 118.547 566.602 124.46C566.602 130.742 568.911 135.87 573.531 139.842C578.243 143.723 584.248 145.663 591.547 145.663ZM580.183 124.044C580.183 120.81 581.245 118.085 583.37 115.867C585.588 113.65 589.099 112.126 593.903 111.294L616.492 107.552V112.264C616.492 116.422 615.522 120.21 613.582 123.628C611.642 127.047 608.916 129.772 605.405 131.805C601.894 133.745 597.783 134.715 593.071 134.715C589.376 134.715 586.281 133.699 583.786 131.666C581.384 129.633 580.183 127.093 580.183 124.044ZM642.434 144H655.323V110.74H669.32L693.017 144H708.262L680.822 104.781L704.104 69.3032H688.999L669.735 98.4058H655.323V39.0919H642.434V144ZM734.678 145.663C740.129 145.663 745.026 144.647 749.368 142.614C753.71 140.489 757.221 137.718 759.901 134.299V144H772.512V69.3032H716.939V81.6372H759.623V96.7428L734.124 100.9C725.716 102.286 719.526 105.104 715.554 109.354C711.673 113.512 709.733 118.547 709.733 124.46C709.733 130.742 712.043 135.87 716.662 139.842C721.374 143.723 727.379 145.663 734.678 145.663ZM723.314 124.044C723.314 120.81 724.377 118.085 726.502 115.867C728.719 113.65 732.23 112.126 737.034 111.294L759.623 107.552V112.264C759.623 116.422 758.653 120.21 756.713 123.628C754.773 127.047 752.047 129.772 748.537 131.805C745.026 133.745 740.915 134.715 736.203 134.715C732.507 134.715 729.412 133.699 726.918 131.666C724.515 129.633 723.314 127.093 723.314 124.044ZM812.312 145.663C817.671 145.663 822.383 144.739 826.448 142.891C830.513 141.044 833.701 138.503 836.01 135.269C838.32 131.943 839.475 128.155 839.475 123.905C839.475 118.732 837.766 114.297 834.347 110.601C830.929 106.906 826.217 104.18 820.212 102.425L808.016 98.8216C806.538 98.3596 805.014 97.8053 803.443 97.1586C801.872 96.4195 800.533 95.4032 799.424 94.1097C798.315 92.7239 797.761 90.9685 797.761 88.8435C797.761 85.8871 798.87 83.485 801.087 81.6372C803.397 79.7894 806.399 78.8655 810.095 78.8655C814.16 78.8655 817.856 80.0203 821.182 82.3301C824.6 84.5474 827.141 87.5963 828.804 91.4766L839.336 86.6262C837.119 80.6209 833.377 75.9552 828.111 72.6292C822.937 69.3032 817.07 67.6402 810.511 67.6402C805.614 67.6402 801.179 68.5641 797.207 70.4119C793.326 72.2596 790.231 74.8465 787.922 78.1726C785.704 81.4062 784.596 85.2403 784.596 89.675C784.596 94.4793 786.12 98.7292 789.169 102.425C792.31 106.028 797.253 108.753 803.997 110.601L815.223 113.789C816.793 114.158 818.41 114.759 820.073 115.59C821.828 116.329 823.307 117.392 824.508 118.778C825.801 120.071 826.448 121.827 826.448 124.044C826.448 127.185 825.108 129.726 822.429 131.666C819.75 133.606 816.378 134.576 812.312 134.576C807.785 134.576 803.674 133.329 799.978 130.835C796.283 128.248 793.373 124.691 791.248 120.164L780.992 125.153C783.302 131.435 787.229 136.424 792.772 140.12C798.315 143.815 804.829 145.663 812.312 145.663Z" fill="white"/>
</svg>
